<?xml version="1.0" standalone="no"?>
<!DOCTYPE svg PUBLIC "-//W3C//DTD SVG 20010904//EN"
 "http://www.w3.org/TR/2001/REC-SVG-20010904/DTD/svg10.dtd">
<svg version="1.0" xmlns="http://www.w3.org/2000/svg"
 width="1200.000000pt" height="1200.000000pt" viewBox="0 0 1200.000000 1200.000000"
 preserveAspectRatio="xMidYMid meet">
<metadata>
Created by potrace 1.12, written by Peter Selinger 2001-2015
</metadata>
<g transform="translate(0.000000,1200.000000) scale(0.100000,-0.100000)"
fill="#000000" stroke="none">
<path d="M2170 5820 l0 -4000 4000 0 4000 0 0 4000 0 4000 -4000 0 -4000 0 0
-4000z m7600 0 l0 -3600 -3600 0 -3600 0 0 3600 0 3600 3600 0 3600 0 0 -3600z"/>
<path d="M3090 6911 l0 -1991 315 0 315 0 0 805 0 806 147 -3 148 -3 513 -803
514 -802 394 0 c217 0 394 2 394 5 0 2 -252 369 -560 816 -308 446 -560 814
-560 819 0 4 21 11 48 15 213 31 450 125 607 242 226 169 356 392 402 688 17
112 13 374 -7 480 -96 505 -424 791 -1026 892 -85 14 -211 17 -871 20 l-773 5
0 -1991z m1523 1404 c175 -30 284 -82 383 -180 115 -114 154 -220 154 -415 0
-201 -40 -310 -155 -425 -97 -98 -206 -149 -382 -180 -66 -12 -176 -15 -489
-15 l-404 0 0 615 0 615 404 0 c313 0 423 -3 489 -15z"/>
<path d="M6740 5995 l0 -715 285 0 285 0 0 430 0 430 605 0 c598 0 606 0 595
-20 -6 -10 -406 -652 -890 -1425 l-880 -1407 0 -279 0 -279 1270 0 1270 0 0
720 0 720 -275 0 -275 0 0 -435 0 -435 -615 0 -615 0 54 88 c29 48 418 687
864 1419 l812 1333 0 285 0 285 -1245 0 -1245 0 0 -715z"/>
</g>
</svg>
